<svg viewBox="0 0 440 160" xmlns="http://www.w3.org/2000/svg">
  <g transform="matrix(1, 0, 0, 1, -151.892044, -272.021881)">
    <path fill="#555555" d="m174.06 428.03-21.164-21.395 66.922 0.074219-0.027343-8.4336h56.953l-0.046875-11.617h56.879l-0.19922-12.43h6.3359v-14.5l26.816-0.003906 3.2617-58.73-11.551 0.003906 0.058593-3.0469h11.488l0.59375-20.512h1.875l0.39453 20.242h10.754l0.097656 3.3164h-10.617l3.1133 58.723h16.352l-0.19531-22.648c-2.7266-1.2734-4.6172-4.0391-4.6172-7.2461 0-4.4141 3.582-7.9922 7.9922-7.9922h5.4258c4.4141 0 7.9922 3.5742 7.9922 7.9922 0 3.0977-1.7656 5.7891-4.3477 7.1094l0.097657 21.898h13.277v19.832h42.957v4.5859l114.74 0.058594 13.355-0.78906-34.273 45.516"></path>
    <path fill="#3cbe3a" d="m174.06 402.94h30.637v-21.312c0 0.003906-30.191-0.88281-30.637 21.312z"></path>
    <path fill="#3cbe3a" d="m268.88 394.45h-30.637v-21.312c0.003906 0 30.195-0.88672 30.637 21.312z"></path>
    <path fill="#3cbe3a" d="m516.99 380.74h-30.637v-21.312s30.191-0.88672 30.637 21.312z"></path>
    <path fill="#3cbe3a" d="m180.11 385.38-18.445-6.7109-1.1133 3.0586 16.508 6.0078c-0.003907 0 1.4336-1.4297 3.0508-2.3555z"></path>
    <path fill="#3cbe3a" d="m261.88 376.69 18.449-6.7148 1.1133 3.0586-16.508 6.0078c0 0.003907-1.4414-1.4258-3.0547-2.3516z"></path>
    <path fill="#3cbe3a" d="m509.72 362.79 18.449-6.7148 1.1133 3.0586-16.508 6.0078c0 0.007813-1.4414-1.4258-3.0547-2.3516z"></path>
  </g>
</svg>